# xmcd
#
# Track frame offsets: 
#        150
#        20357
#        44057
#        69605
#        89317
#        109797
#        129232
#        149325
#        173025
#        198575
#
# Disc length: 2918 seconds
#
# Revision: 0
# Processed by: cddbd v1.5.2PL0 Copyright (c) Steve Scherf et al.
# Submitted via: ExactAudioCopy v0.95b4
#
DISCID=8c0b640a
DTITLE=Sabrina SETLUR - Ich leb' Für Dich (SingleCD)
DYEAR=1999
DGENRE=Pop-Folk
TTITLE0=director's cut
TTITLE1=nasty's joint
TTITLE2=air knee's mood
TTITLE3=namlock mix
TTITLE4=a&a  - straight out of bieber -  mix
TTITLE5=director's radio edit
TTITLE6=director's cut  - instrumental
TTITLE7=nasty's joint  - instrumental
TTITLE8=air knee's mood  - instrumental
TTITLE9=a&a  - straight out of bieber -  mix  - instrumental
EXTD=
EXTT0=
EXTT1=
EXTT2=
EXTT3=
EXTT4=
EXTT5=
EXTT6=
EXTT7=
EXTT8=
EXTT9=
PLAYORDER=
